<?xml version="1.0" encoding="utf-8"?>
<!DOCTYPE svg PUBLIC "-//W3C//DTD SVG 1.0//EN" "http://www.w3.org/TR/2001/REC-SVG-20010904/DTD/svg10.dtd">
<svg version="1.0" xmlns="http://www.w3.org/2000/svg" width="1024px" height="1024px" viewBox="0 0 1024 1024" preserveAspectRatio="xMidYMid meet">
 <g fill="#fd7a04">
  <path d="M94.5 800 c-1.2 -1.9 -5.5 3.7 76 -98.4 27 -33.8 49.5 -61.7 113.3 -141 16.3 -20.2 33.3 -41.4 37.7 -47 4.4 -5.7 13 -16.3 19 -23.7 6.1 -7.4 14.6 -17.8 19 -23.3 4.8 -6 9.1 -10.4 11 -11.1 1.7 -0.8 11.8 -1.8 23 -2.5 11 -0.7 25.9 -1.6 33 -2.1 7.2 -0.5 20.4 -1.3 29.5 -1.8 9.1 -0.6 23.5 -1.5 32 -2 8.5 -0.5 23.8 -1.4 34 -2 10.2 -0.6 24.1 -1.5 31 -2.1 6.9 -0.5 21.3 -1.4 32 -2 28.5 -1.5 58.1 -3.7 58.8 -4.4 0.9 -0.9 -2.8 -3.4 -6.8 -4.6 -1.9 -0.6 -12.9 -3.1 -24.5 -5.5 -11.5 -2.5 -24.8 -5.4 -29.5 -6.5 -4.7 -1.1 -17.3 -3.7 -28 -5.9 -10.7 -2.2 -28.3 -5.9 -39 -8.1 -10.7 -2.3 -23.8 -5 -29 -6 -5.2 -1.1 -19.2 -4 -31 -6.5 -11.8 -2.5 -24 -5 -27 -5.5 -3 -0.6 -15.2 -3 -27 -5.5 -11.8 -2.5 -27.1 -5.7 -34 -7 -19 -3.6 -27 -5.4 -28.9 -6.4 -1.7 -1 -21.1 -21.2 -31.2 -32.7 -6.5 -7.3 -32.3 -35.7 -42.9 -46.9 -11 -11.9 -53.1 -58.1 -81.2 -89.3 -7.4 -8.2 -9.1 -11.3 -6.8 -12.7 1.2 -0.7 16.1 2.8 37.8 8.9 8.6 2.4 29.4 8.1 46.2 12.6 16.8 4.5 47.6 12.8 68.5 18.5 20.9 5.7 45.9 12.4 55.5 15 9.6 2.6 27.6 7.5 40 11 12.4 3.5 31.1 8.7 41.5 11.5 10.5 2.8 23.7 6.4 29.5 8 11 3.1 55.2 15.3 80 22.2 20.5 5.6 37.6 10.4 51.5 14.3 16.2 4.6 64.2 17.6 79 21.5 6.6 1.7 18.8 5.1 27 7.5 14.8 4.3 46.2 13.1 101 28 39.5 10.9 44.5 12.4 45.2 14.2 1 2.4 -2.1 4.4 -31.9 20.7 -15 8.2 -30.7 16.8 -34.8 19.1 -20.8 11.6 -29.3 16.3 -50.5 27.7 -38.6 20.9 -67.9 37 -69 37.8 -0.5 0.4 -7.7 4.2 -16 8.5 -8.2 4.3 -21.5 11.5 -29.5 16 -8 4.5 -20.3 11.2 -27.5 15 -7.1 3.7 -20.6 10.9 -30 16 -9.3 5.1 -31.2 16.8 -48.5 26 -17.3 9.2 -40.9 21.8 -52.5 28 -11.5 6.2 -25.3 13.5 -30.5 16.2 -29.9 15.7 -49.2 25.9 -54.5 28.8 -3.3 1.8 -19.7 10.5 -36.5 19.3 -16.8 8.8 -44 23 -60.5 31.7 -16.5 8.7 -41 21.5 -54.5 28.5 -13.5 7 -40.2 20.9 -59.5 31 -63.9 33.3 -93 48.2 -95.7 49.1 -1.6 0.4 -3 0.4 -3.3 -0.1z"/>
  <path d="M539 669.1 c-9.6 -0.4 -18.1 -1 -18.7 -1.4 -4.3 -2.8 4.4 -14.6 19.5 -26.2 9.9 -7.7 48.7 -33.9 57.7 -39 30.1 -17 36.7 -18.5 77.7 -17.6 19.2 0.4 28.1 1 28.9 1.8 5 5 -14.1 21.4 -63.1 54 -29.2 19.4 -37.6 23.6 -55.7 27.2 -10.5 2.2 -12.4 2.2 -46.3 1.2z"/>
 </g>
</svg>